<?xml version="1.0" encoding="utf-8"?>
<!-- Generator: Adobe Illustrator 27.8.1, SVG Export Plug-In . SVG Version: 6.00 Build 0)  -->
<!DOCTYPE svg PUBLIC "-//W3C//DTD SVG 1.1//EN" "http://www.w3.org/Graphics/SVG/1.1/DTD/svg11.dtd" [
	<!ENTITY ns_flows "http://ns.adobe.com/Flows/1.0/">
	<!ENTITY ns_extend "http://ns.adobe.com/Extensibility/1.0/">
	<!ENTITY ns_ai "http://ns.adobe.com/AdobeIllustrator/10.0/">
	<!ENTITY ns_graphs "http://ns.adobe.com/Graphs/1.0/">
	<!ENTITY ns_vars "http://ns.adobe.com/Variables/1.0/">
	<!ENTITY ns_imrep "http://ns.adobe.com/ImageReplacement/1.0/">
	<!ENTITY ns_sfw "http://ns.adobe.com/SaveForWeb/1.0/">
	<!ENTITY ns_custom "http://ns.adobe.com/GenericCustomNamespace/1.0/">
	<!ENTITY ns_adobe_xpath "http://ns.adobe.com/XPath/1.0/">
]>
<svg version="1.1" xmlns:x="&ns_extend;" xmlns:i="&ns_ai;" xmlns:graph="&ns_graphs;"
	 xmlns="http://www.w3.org/2000/svg" xmlns:xlink="http://www.w3.org/1999/xlink" xmlns:a="http://ns.adobe.com/AdobeSVGViewerExtensions/3.0/"
	 x="0px" y="0px" width="1000px" height="625px" viewBox="0 0 1000 625" enable-background="new 0 0 1000 625" xml:space="preserve"
	>
<metadata>
	<sfw  xmlns="&ns_sfw;">
		<slices></slices>
		<sliceSourceBounds  bottomLeftOrigin="true" height="15637.233" width="7077.534" x="-1946.354" y="-7424.814">
			</sliceSourceBounds>
	</sfw>
</metadata>
<g id="FILL-BACKGROUND">
</g>
<g id="N-TEXT">
</g>
<g id="N-DIMENSIONS">
</g>
<g id="_x32_D_x24_AG-DETAILS-DIAGRAM">
	<g id="POLYLINE_00000128471609430423124310000004224289620709668251_">
		<g>
			<g>
				<path fill="none" stroke="#8228FF" stroke-width="2.5" stroke-linecap="round" stroke-linejoin="round" d="M750.825,314.204
					c0-0.485,0-0.984,0-1.497"/>
				
					<path fill="none" stroke="#8228FF" stroke-width="2.5" stroke-linecap="round" stroke-linejoin="round" stroke-dasharray="3.0506,5.0843" d="
					M750.825,307.625c0-15.792,0-39.553,0-54.411"/>
				<path fill="none" stroke="#8228FF" stroke-width="2.5" stroke-linecap="round" stroke-linejoin="round" d="M750.825,250.672
					c0-0.513,0-1.012,0-1.497"/>
			</g>
		</g>
	</g>
	<g id="POLYLINE_00000057118745415140232620000009598321209680611765_">
		<g>
			<g>
				
					<line fill="none" stroke="#8228FF" stroke-width="2.5" stroke-linecap="round" stroke-linejoin="round" x1="105.183" y1="300.269" x2="105.183" y2="301.769"/>
				
					<line fill="none" stroke="#8228FF" stroke-width="2.5" stroke-linecap="round" stroke-linejoin="round" stroke-dasharray="2.5234,4.2057" x1="105.183" y1="305.975" x2="105.183" y2="310.601"/>
				
					<line fill="none" stroke="#8228FF" stroke-width="2.5" stroke-linecap="round" stroke-linejoin="round" x1="105.183" y1="312.704" x2="105.183" y2="314.204"/>
			</g>
		</g>
	</g>
	<g id="POLYLINE_00000107589306890520338630000014141175069849959566_">
		<g>
			<g>
				
					<line fill="none" stroke="#8228FF" stroke-width="2.5" stroke-linecap="round" stroke-linejoin="round" x1="416.392" y1="286.334" x2="416.392" y2="287.834"/>
				
					<line fill="none" stroke="#8228FF" stroke-width="2.5" stroke-linecap="round" stroke-linejoin="round" stroke-dasharray="2.5727,4.2878" x1="416.392" y1="292.122" x2="416.392" y2="310.56"/>
				
					<line fill="none" stroke="#8228FF" stroke-width="2.5" stroke-linecap="round" stroke-linejoin="round" x1="416.392" y1="312.704" x2="416.392" y2="314.204"/>
			</g>
		</g>
	</g>
</g>
<g id="_x32_D_x24_AG-BUILDINGS">
	<g id="POLYLINE_00000124145350364711278220000014577306094087726214_">
		
			<polygon fill="none" stroke="#8228FF" stroke-width="2.5" stroke-linecap="round" stroke-linejoin="round" stroke-miterlimit="10" points="
			750.825,412.521 750.825,434.197 685.796,434.197 685.796,455.873 908.752,455.873 908.752,390.845 685.796,390.845 
			685.796,412.521 		"/>
	</g>
	<g id="POLYLINE_00000137101306069438026060000011596485067289224840_">
		
			<rect x="685.796" y="412.521" fill="none" stroke="#8228FF" stroke-width="2.5" stroke-linecap="round" stroke-linejoin="round" stroke-miterlimit="10" width="65.029" height="21.676"/>
	</g>
	<g id="POLYLINE_00000057846682304989481730000016999803777173628075_">
		
			<polygon fill="none" stroke="#8228FF" stroke-width="2.5" stroke-linecap="round" stroke-linejoin="round" stroke-miterlimit="10" points="
			105.183,481.45 91.248,481.45 91.248,486.095 314.204,486.095 314.204,472.16 91.248,472.16 91.248,476.805 105.183,476.805 		"/>
	</g>
	<g id="POLYLINE_00000067227793146585949360000006832408835568617119_">
		
			<rect x="91.248" y="476.805" fill="none" stroke="#8228FF" stroke-width="2.5" stroke-linecap="round" stroke-linejoin="round" stroke-miterlimit="10" width="13.935" height="4.645"/>
	</g>
	<g id="POLYLINE_00000032617833672054085780000011130222904366097838_">
		
			<polygon fill="none" stroke="#8228FF" stroke-width="2.5" stroke-linecap="round" stroke-linejoin="round" stroke-miterlimit="10" points="
			105.183,400.134 105.183,409.424 91.248,409.424 91.248,418.714 314.204,418.714 314.204,390.845 91.248,390.845 91.248,400.134 
					"/>
	</g>
	<g id="POLYLINE_00000108267951532513734910000018249667430974844304_">
		
			<rect x="91.248" y="400.134" fill="none" stroke="#8228FF" stroke-width="2.5" stroke-linecap="round" stroke-linejoin="round" stroke-miterlimit="10" width="13.935" height="9.29"/>
	</g>
	<g id="POLYLINE_00000121253111638888707380000011317540115718560190_">
		
			<polygon fill="none" stroke="#8228FF" stroke-width="2.5" stroke-linecap="round" stroke-linejoin="round" stroke-miterlimit="10" points="
			416.392,493.836 416.392,515.512 388.522,515.512 388.522,537.189 611.478,537.189 611.478,472.16 388.522,472.16 
			388.522,493.836 		"/>
	</g>
	<g id="POLYLINE_00000049905484631452993470000005013672033236622986_">
		
			<rect x="388.522" y="493.836" fill="none" stroke="#8228FF" stroke-width="2.5" stroke-linecap="round" stroke-linejoin="round" stroke-miterlimit="10" width="27.869" height="21.676"/>
	</g>
	<g id="POLYLINE_00000078753748017703241010000013398473220841697168_">
		
			<polygon fill="none" stroke="#8228FF" stroke-width="2.5" stroke-linecap="round" stroke-linejoin="round" stroke-miterlimit="10" points="
			416.392,409.424 388.522,409.424 388.522,418.714 611.478,418.714 611.478,390.845 388.522,390.845 388.522,400.134 
			416.392,400.134 		"/>
	</g>
	<g id="POLYLINE_00000080164471338236398220000009902092839417374123_">
		
			<rect x="388.522" y="400.134" fill="none" stroke="#8228FF" stroke-width="2.5" stroke-linecap="round" stroke-linejoin="round" stroke-miterlimit="10" width="27.869" height="9.29"/>
	</g>
	<g id="POLYLINE_00000105385578841325569660000010840059232676893327_">
		
			<polygon fill="none" stroke="#8228FF" stroke-width="2.5" stroke-linecap="round" stroke-linejoin="round" stroke-miterlimit="10" points="
			105.183,300.269 105.183,91.248 91.248,91.248 91.248,314.204 		"/>
	</g>
	<g id="POLYLINE_00000057858231362625407250000014886965780237736089_">
		
			<polygon fill="none" stroke="#8228FF" stroke-width="2.5" stroke-linecap="round" stroke-linejoin="round" stroke-miterlimit="10" points="
			105.183,300.269 91.248,314.204 314.204,314.204 314.204,300.269 		"/>
	</g>
	<g id="POLYLINE_00000027587478885214852360000010655444601462374062_">
		
			<polygon fill="none" stroke="#8228FF" stroke-width="2.5" stroke-linecap="round" stroke-linejoin="round" stroke-miterlimit="10" points="
			416.392,286.334 388.522,314.204 611.478,314.204 611.478,286.334 		"/>
	</g>
	<g id="POLYLINE_00000150785590427777101410000005539696857718853791_">
		
			<polygon fill="none" stroke="#8228FF" stroke-width="2.5" stroke-linecap="round" stroke-linejoin="round" stroke-miterlimit="10" points="
			416.392,286.334 416.392,91.248 388.522,91.248 388.522,314.204 		"/>
	</g>
	<g id="POLYLINE_00000039131330811418154620000005155085184961128576_">
		
			<polygon fill="none" stroke="#8228FF" stroke-width="2.5" stroke-linecap="round" stroke-linejoin="round" stroke-miterlimit="10" points="
			750.825,249.175 685.796,314.204 908.752,314.204 908.752,249.175 		"/>
	</g>
	<g id="POLYLINE_00000109730792135099547740000014100201402491905446_">
		
			<polygon fill="none" stroke="#8228FF" stroke-width="2.5" stroke-linecap="round" stroke-linejoin="round" stroke-miterlimit="10" points="
			750.825,249.175 750.825,91.248 685.796,91.248 685.796,314.204 		"/>
	</g>
</g>
<g id="_x32_D_x24_AG-OUTLINE">
	<g id="POLYLINE_00000046326378209391318760000010490293896318895761_">
		
			<path fill="none" stroke="#8228FF" stroke-width="3.25" stroke-linecap="round" stroke-linejoin="round" stroke-miterlimit="10" d="
			M685.796,434.197v21.676h222.955v-65.029H685.796C685.796,401.65,685.796,423.394,685.796,434.197z"/>
	</g>
	<g id="POLYLINE_00000142169641832543579730000017854347642637357455_">
		
			<path fill="none" stroke="#8228FF" stroke-width="3.25" stroke-linecap="round" stroke-linejoin="round" stroke-miterlimit="10" d="
			M91.248,481.45v4.645h222.955V472.16H91.248C91.248,474.475,91.248,479.135,91.248,481.45z"/>
	</g>
	<g id="POLYLINE_00000084500342951070169990000007146840475671989889_">
		
			<path fill="none" stroke="#8228FF" stroke-width="3.25" stroke-linecap="round" stroke-linejoin="round" stroke-miterlimit="10" d="
			M91.248,409.424v9.29h222.955v-27.869H91.248C91.248,395.475,91.248,404.794,91.248,409.424z"/>
	</g>
	<g id="POLYLINE_00000135655678161901304790000016010028556610742713_">
		
			<path fill="none" stroke="#8228FF" stroke-width="3.25" stroke-linecap="round" stroke-linejoin="round" stroke-miterlimit="10" d="
			M388.522,515.512v21.676h222.955V472.16H388.522C388.522,482.965,388.522,504.71,388.522,515.512z"/>
	</g>
	<g id="POLYLINE_00000147220452578488005630000014525976621845603249_">
		
			<path fill="none" stroke="#8228FF" stroke-width="3.25" stroke-linecap="round" stroke-linejoin="round" stroke-miterlimit="10" d="
			M388.522,409.424v9.29h222.955v-27.869H388.522C388.522,395.475,388.522,404.794,388.522,409.424z"/>
	</g>
	<g id="POLYLINE_00000017499534932142504430000018280492155316700803_">
		
			<polygon fill="none" stroke="#8228FF" stroke-width="3.25" stroke-linecap="round" stroke-linejoin="round" stroke-miterlimit="10" points="
			91.248,314.204 314.204,314.204 314.204,300.269 105.183,300.269 105.183,91.248 91.248,91.248 		"/>
	</g>
	<g id="POLYLINE_00000178171547141699158420000016772734763481279166_">
		
			<polygon fill="none" stroke="#8228FF" stroke-width="3.25" stroke-linecap="round" stroke-linejoin="round" stroke-miterlimit="10" points="
			388.522,314.204 611.478,314.204 611.478,286.334 416.392,286.334 416.392,91.248 388.522,91.248 		"/>
	</g>
	<g id="POLYLINE_00000034800669803046834530000002564312036739284865_">
		
			<polygon fill="none" stroke="#8228FF" stroke-width="3.25" stroke-linecap="round" stroke-linejoin="round" stroke-miterlimit="10" points="
			685.796,314.204 908.752,314.204 908.752,249.175 750.825,249.175 750.825,91.248 685.796,91.248 		"/>
	</g>
</g>
</svg>
